<svg xmlns="http://www.w3.org/2000/svg" viewBox="0 0 3000 3000"><defs><style>.cls-1{fill:#cc2b61;}</style></defs><title>Artboard 1 copy 5</title><g id="FINAL"><g id="TouchPay"><path class="cls-1" d="M795.119,1370.32052v21.885H707.02732v237.97609H684.03884V1392.20554h-88.0913v-21.885Z"/><path class="cls-1" d="M890.19916,1634.77919q-43.40511,0-72.55141-28.87357-29.15086-28.87018-29.14952-71.72356,0-42.84881,29.14952-71.72389,29.14631-28.87071,72.55141-28.87324,28.319,0,51.58609,13.14926a95.53334,95.53334,0,0,1,36.50555,36.22959q13.241,23.08186,13.24112,51.21828,0,28.1376-13.24112,51.21828a95.499,95.499,0,0,1-36.50555,36.22994Q918.518,1634.77649,890.19916,1634.77919Zm-56.45961-43.86191q22.62082,22.71557,56.45961,22.71286,33.83624,0,56.27552-22.71286,22.43539-22.71051,22.43658-56.73522,0-34.02166-22.43658-56.73555-22.43945-22.711-56.27552-22.71253-33.8403,0-56.45961,22.71253-22.62031,22.71557-22.62066,56.73555Q811.11889,1568.20779,833.73955,1590.91728Z"/><path class="cls-1" d="M1182.9795,1612.71077q-23.172,22.06809-61.60872,22.06842-38.43955,0-61.70094-22.06842-23.2673-22.06911-23.26442-58.299V1438.18249h21.70094v113.2867q0,27.95722,17.37933,45.05757,17.37916,17.103,45.88509,17.10338,28.50389,0,45.70066-17.01151,17.19425-17.00881,17.19559-45.14944v-113.2867h21.88469v116.22924Q1206.15172,1590.64437,1182.9795,1612.71077Z"/><path class="cls-1" d="M1352.90988,1634.77919q-43.40509,0-72.55141-28.87357-29.15086-28.87018-29.14951-71.72356,0-42.84881,29.14951-71.72389,29.14632-28.87071,72.55141-28.87324,28.13758,0,51.21828,12.87331a93.9624,93.9624,0,0,1,36.13772,35.31022l-19.12655,11.77018a75.19886,75.19886,0,0,0-28.13759-28.32167,78.28532,78.28532,0,0,0-40.09186-10.483q-33.8403,0-56.45961,22.71253-22.62032,22.71557-22.62066,56.73555,0,34.02573,22.62066,56.73522,22.62082,22.71557,56.45961,22.71286a78.2884,78.2884,0,0,0,40.09186-10.48265,75.1868,75.1868,0,0,0,28.13759-28.32167l19.12655,11.58577A96.1215,96.1215,0,0,1,1404.036,1621.814Q1381.04477,1634.77885,1352.90988,1634.77919Z"/><path class="cls-1" d="M1581.50677,1433.58493q36.22757,0,58.39023,21.97689,22.15927,21.97791,22.161,58.20649v116.41332H1640.357V1520.205q0-29.60736-17.93089-47.53976-17.93192-17.93141-47.35636-17.93123-30.52994,0-49.287,18.20684-18.75873,18.207-18.75907,47.99978v109.241H1485.139V1358.91849h21.88469V1474.964a76.10215,76.10215,0,0,1,30.06923-30.62079Q1556.30868,1433.58477,1581.50677,1433.58493Z"/><path class="cls-1" d="M1828.12608,1370.32052a90.48022,90.48022,0,0,1,44.23007,10.94268,80.50917,80.50917,0,0,1,31.35609,30.43671,84.39294,84.39294,0,0,1,11.402,43.40189q0,36.04721-25.011,60.13779-25.01265,24.09513-61.97722,24.09193h-65.65472v90.85011h-44.68942V1370.32052Zm-.73563,126.89631q17.83665,0,29.79294-12.04614,11.95259-12.04275,11.95461-30.06889,0-18.38788-11.95461-30.52858-11.95662-12.1375-29.79294-12.13767h-64.91909v84.78128Z"/><path class="cls-1" d="M2323.573,1438.18249H2370.653l-98.39021,228.59656q-7.72419,18.5733-22.52913,29.05731a54.96234,54.96234,0,0,1-32.45921,10.48265,68.17783,68.17783,0,0,1-25.28725-5.24133,74.36068,74.36068,0,0,1-22.52845-13.70081l16.919-32.73549q10.48334,11.03455,24.09227,11.03455,15.26295,0,22.98848-16.36775l10.29824-21.33346-80.36746-189.79223h48.3676l55.724,139.95336Z"/></g><g id="tap_1_Image" data-name="tap (1) Image"><path class="cls-1" d="M2092.58509,1438.18249v27.4023q-25.19808-32.00019-67.30974-31.99986-26.66833,0-48.3676,13.14926a91.778,91.778,0,0,0-33.93115,36.13772q-12.23224,22.99119-12.22954,51.31015,0,28.323,12.22954,51.31015a91.74527,91.74527,0,0,0,33.93115,36.13807q21.69825,13.14621,48.3676,13.14891,41.93028,0,67.30974-32.18359v27.586h42.29877V1438.18249Zm-28.32327,119.843c-1.08421,13.31787-12.77392,24.34795-26.89625,25.04267a107.19884,107.19884,0,0,1-21.24979-1.24045c-6.22986-.94784-10.74754-5.40932-15.09305-9.81837q-12.95078-13.14013-26.06806-26.116-1.86482-1.85291-3.726-3.70939c-4.72751-4.6923-5.62688-8.75658-2.58081-12.69716a10.47237,10.47237,0,0,1,5.80513-3.59036,11.36172,11.36172,0,0,1,8.91217,1.34461c5.4661,3.62148,10.70278,7.58908,16.04012,11.405.52774.37727,1.0636.74294,2.22481,1.55271,0-15.08524-.01317-29.36306.012-43.64081a51.59388,51.59388,0,0,1,.30677-7.91426c.87411-5.53982,5.0694-8.75443,10.442-8.348s9.01341,4.27407,9.16794,9.80233c.05792,2.07231.00354,4.14766.00219,6.22166-.00135,2.0632-.00034,4.12639-.00034,6.21352,9.1806-.93149,12.09511.64048,14.88178,7.83417,8.12241-1.96338,11.35753-.42477,14.85189,7.23254,4.32871-1.205,8.76448-1.49471,11.79729,2.57869a12.11918,12.11918,0,0,1,2.62244,6.79261C2065.51768,1537.32937,2065.10241,1547.70019,2064.26182,1558.02545Z"/></g><g id="Rounded_Rectangle_4" data-name="Rounded Rectangle 4"><path class="cls-1" d="M2027.40755,1308.78154c-3.63318.09619-6.57849,2.49682-6.57849,5.36206v64.33056c0,2.86524,2.94531,5.11011,6.57849,5.01392,3.63318-.096,6.57849-2.49658,6.57849-5.36182v-64.33081C2033.986,1310.93022,2031.04073,1308.68559,2027.40755,1308.78154Z"/></g><g id="Rounded_Rectangle_4_copy_2" data-name="Rounded Rectangle 4 copy 2"><path class="cls-1" d="M1978.64241,1383.60868l-44.2287-46.38549c-1.96991-2.06592-5.74713-1.77393-8.4367.65258-2.68952,2.42627-3.27283,6.06812-1.30292,8.134l44.22852,46.3855c1.96991,2.06616,5.74719,1.77392,8.4367-.65235C1980.02883,1389.31645,1980.61226,1385.67485,1978.64241,1383.60868Z"/></g><g id="Rounded_Rectangle_4_copy_3" data-name="Rounded Rectangle 4 copy 3"><path class="cls-1" d="M2126.28548,1337.79545c-2.67621-2.43359-6.43451-2.7268-8.39465-.65478l-44.00788,46.52417c-1.96,2.072-1.37951,5.72485,1.29651,8.15844s6.43451,2.72657,8.39465.65454l44.00788-46.52417C2129.542,1343.88163,2128.9615,1340.22905,2126.28548,1337.79545Z"/></g></g></svg>